<?xml version="1.0" encoding="utf-8" standalone="no"?>
<!DOCTYPE svg PUBLIC "-//W3C//DTD SVG 1.1//EN"
  "http://www.w3.org/Graphics/SVG/1.1/DTD/svg11.dtd">
<!-- Created with matplotlib (https://matplotlib.org/) -->
<svg height="432pt" version="1.1" viewBox="0 0 288 432" width="288pt" xmlns="http://www.w3.org/2000/svg" xmlns:xlink="http://www.w3.org/1999/xlink">
 <metadata>
  <rdf:RDF xmlns:cc="http://creativecommons.org/ns#" xmlns:dc="http://purl.org/dc/elements/1.1/" xmlns:rdf="http://www.w3.org/1999/02/22-rdf-syntax-ns#">
   <cc:Work>
    <dc:type rdf:resource="http://purl.org/dc/dcmitype/StillImage"/>
    <dc:date>2021-01-03T11:21:48.148818</dc:date>
    <dc:format>image/svg+xml</dc:format>
    <dc:creator>
     <cc:Agent>
      <dc:title>Matplotlib v3.3.3, https://matplotlib.org/</dc:title>
     </cc:Agent>
    </dc:creator>
   </cc:Work>
  </rdf:RDF>
 </metadata>
 <defs>
  <style type="text/css">*{stroke-linecap:butt;stroke-linejoin:round;}</style>
 </defs>
 <g id="figure_1">
  <g id="patch_1">
   <path d="M 0 432 
L 288 432 
L 288 0 
L 0 0 
z
" style="fill:none;"/>
  </g>
  <g id="axes_1">
   <g id="patch_2">
    <path d="M 36 147.769412 
L 259.2 147.769412 
L 259.2 51.84 
L 36 51.84 
z
" style="fill:#ffffff;"/>
   </g>
   <g id="matplotlib.axis_1">
    <g id="xtick_1">
     <g id="line2d_1">
      <path clip-path="url(#p69b6f190b2)" d="M 36 147.769412 
L 36 51.84 
" style="fill:none;stroke:#cccccc;stroke-linecap:round;stroke-width:0.6;"/>
     </g>
    </g>
    <g id="xtick_2">
     <g id="line2d_2">
      <path clip-path="url(#p69b6f190b2)" d="M 73.2 147.769412 
L 73.2 51.84 
" style="fill:none;stroke:#cccccc;stroke-linecap:round;stroke-width:0.6;"/>
     </g>
    </g>
    <g id="xtick_3">
     <g id="line2d_3">
      <path clip-path="url(#p69b6f190b2)" d="M 110.4 147.769412 
L 110.4 51.84 
" style="fill:none;stroke:#cccccc;stroke-linecap:round;stroke-width:0.6;"/>
     </g>
    </g>
    <g id="xtick_4">
     <g id="line2d_4">
      <path clip-path="url(#p69b6f190b2)" d="M 147.6 147.769412 
L 147.6 51.84 
" style="fill:none;stroke:#cccccc;stroke-linecap:round;stroke-width:0.6;"/>
     </g>
    </g>
    <g id="xtick_5">
     <g id="line2d_5">
      <path clip-path="url(#p69b6f190b2)" d="M 184.8 147.769412 
L 184.8 51.84 
" style="fill:none;stroke:#cccccc;stroke-linecap:round;stroke-width:0.6;"/>
     </g>
    </g>
    <g id="xtick_6">
     <g id="line2d_6">
      <path clip-path="url(#p69b6f190b2)" d="M 222 147.769412 
L 222 51.84 
" style="fill:none;stroke:#cccccc;stroke-linecap:round;stroke-width:0.6;"/>
     </g>
    </g>
    <g id="xtick_7">
     <g id="line2d_7">
      <path clip-path="url(#p69b6f190b2)" d="M 259.2 147.769412 
L 259.2 51.84 
" style="fill:none;stroke:#cccccc;stroke-linecap:round;stroke-width:0.6;"/>
     </g>
    </g>
   </g>
   <g id="matplotlib.axis_2">
    <g id="ytick_1">
     <g id="line2d_8">
      <path clip-path="url(#p69b6f190b2)" d="M 36 143.408984 
L 259.2 143.408984 
" style="fill:none;stroke:#cccccc;stroke-linecap:round;stroke-width:0.6;"/>
     </g>
     <g id="text_1">
      <!-- 0.0 -->
      <g style="fill:#262626;" transform="translate(5.21 147.345781)scale(0.11 -0.11)">
       <defs>
        <path d="M 4.15625 35.296875 
Q 4.15625 48 6.765625 55.734375 
Q 9.375 63.484375 14.515625 67.671875 
Q 19.671875 71.875 27.484375 71.875 
Q 33.25 71.875 37.59375 69.546875 
Q 41.9375 67.234375 44.765625 62.859375 
Q 47.609375 58.5 49.21875 52.21875 
Q 50.828125 45.953125 50.828125 35.296875 
Q 50.828125 22.703125 48.234375 14.96875 
Q 45.65625 7.234375 40.5 3 
Q 35.359375 -1.21875 27.484375 -1.21875 
Q 17.140625 -1.21875 11.234375 6.203125 
Q 4.15625 15.140625 4.15625 35.296875 
z
M 13.1875 35.296875 
Q 13.1875 17.671875 17.3125 11.828125 
Q 21.4375 6 27.484375 6 
Q 33.546875 6 37.671875 11.859375 
Q 41.796875 17.71875 41.796875 35.296875 
Q 41.796875 52.984375 37.671875 58.78125 
Q 33.546875 64.59375 27.390625 64.59375 
Q 21.34375 64.59375 17.71875 59.46875 
Q 13.1875 52.9375 13.1875 35.296875 
z
" id="ArialMT-48"/>
        <path d="M 9.078125 0 
L 9.078125 10.015625 
L 19.09375 10.015625 
L 19.09375 0 
z
" id="ArialMT-46"/>
       </defs>
       <use xlink:href="#ArialMT-48"/>
       <use x="55.615234" xlink:href="#ArialMT-46"/>
       <use x="83.398438" xlink:href="#ArialMT-48"/>
      </g>
     </g>
    </g>
    <g id="ytick_2">
     <g id="line2d_9">
      <path clip-path="url(#p69b6f190b2)" d="M 36 115.635642 
L 259.2 115.635642 
" style="fill:none;stroke:#cccccc;stroke-linecap:round;stroke-width:0.6;"/>
     </g>
     <g id="text_2">
      <!-- 0.1 -->
      <g style="fill:#262626;" transform="translate(5.21 119.572439)scale(0.11 -0.11)">
       <defs>
        <path d="M 37.25 0 
L 28.46875 0 
L 28.46875 56 
Q 25.296875 52.984375 20.140625 49.953125 
Q 14.984375 46.921875 10.890625 45.40625 
L 10.890625 53.90625 
Q 18.265625 57.375 23.78125 62.296875 
Q 29.296875 67.234375 31.59375 71.875 
L 37.25 71.875 
z
" id="ArialMT-49"/>
       </defs>
       <use xlink:href="#ArialMT-48"/>
       <use x="55.615234" xlink:href="#ArialMT-46"/>
       <use x="83.398438" xlink:href="#ArialMT-49"/>
      </g>
     </g>
    </g>
    <g id="ytick_3">
     <g id="line2d_10">
      <path clip-path="url(#p69b6f190b2)" d="M 36 87.862301 
L 259.2 87.862301 
" style="fill:none;stroke:#cccccc;stroke-linecap:round;stroke-width:0.6;"/>
     </g>
     <g id="text_3">
      <!-- 0.2 -->
      <g style="fill:#262626;" transform="translate(5.21 91.799098)scale(0.11 -0.11)">
       <defs>
        <path d="M 50.34375 8.453125 
L 50.34375 0 
L 3.03125 0 
Q 2.9375 3.171875 4.046875 6.109375 
Q 5.859375 10.9375 9.828125 15.625 
Q 13.8125 20.3125 21.34375 26.46875 
Q 33.015625 36.03125 37.109375 41.625 
Q 41.21875 47.21875 41.21875 52.203125 
Q 41.21875 57.421875 37.46875 61 
Q 33.734375 64.59375 27.734375 64.59375 
Q 21.390625 64.59375 17.578125 60.78125 
Q 13.765625 56.984375 13.71875 50.25 
L 4.6875 51.171875 
Q 5.609375 61.28125 11.65625 66.578125 
Q 17.71875 71.875 27.9375 71.875 
Q 38.234375 71.875 44.234375 66.15625 
Q 50.25 60.453125 50.25 52 
Q 50.25 47.703125 48.484375 43.546875 
Q 46.734375 39.40625 42.65625 34.8125 
Q 38.578125 30.21875 29.109375 22.21875 
Q 21.1875 15.578125 18.9375 13.203125 
Q 16.703125 10.84375 15.234375 8.453125 
z
" id="ArialMT-50"/>
       </defs>
       <use xlink:href="#ArialMT-48"/>
       <use x="55.615234" xlink:href="#ArialMT-46"/>
       <use x="83.398438" xlink:href="#ArialMT-50"/>
      </g>
     </g>
    </g>
    <g id="ytick_4">
     <g id="line2d_11">
      <path clip-path="url(#p69b6f190b2)" d="M 36 60.088959 
L 259.2 60.088959 
" style="fill:none;stroke:#cccccc;stroke-linecap:round;stroke-width:0.6;"/>
     </g>
     <g id="text_4">
      <!-- 0.3 -->
      <g style="fill:#262626;" transform="translate(5.21 64.025756)scale(0.11 -0.11)">
       <defs>
        <path d="M 4.203125 18.890625 
L 12.984375 20.0625 
Q 14.5 12.59375 18.140625 9.296875 
Q 21.78125 6 27 6 
Q 33.203125 6 37.46875 10.296875 
Q 41.75 14.59375 41.75 20.953125 
Q 41.75 27 37.796875 30.921875 
Q 33.84375 34.859375 27.734375 34.859375 
Q 25.25 34.859375 21.53125 33.890625 
L 22.515625 41.609375 
Q 23.390625 41.5 23.921875 41.5 
Q 29.546875 41.5 34.03125 44.421875 
Q 38.53125 47.359375 38.53125 53.46875 
Q 38.53125 58.296875 35.25 61.46875 
Q 31.984375 64.65625 26.8125 64.65625 
Q 21.6875 64.65625 18.265625 61.421875 
Q 14.84375 58.203125 13.875 51.765625 
L 5.078125 53.328125 
Q 6.6875 62.15625 12.390625 67.015625 
Q 18.109375 71.875 26.609375 71.875 
Q 32.46875 71.875 37.390625 69.359375 
Q 42.328125 66.84375 44.9375 62.5 
Q 47.5625 58.15625 47.5625 53.265625 
Q 47.5625 48.640625 45.0625 44.828125 
Q 42.578125 41.015625 37.703125 38.765625 
Q 44.046875 37.3125 47.5625 32.6875 
Q 51.078125 28.078125 51.078125 21.140625 
Q 51.078125 11.765625 44.234375 5.25 
Q 37.40625 -1.265625 26.953125 -1.265625 
Q 17.53125 -1.265625 11.296875 4.34375 
Q 5.078125 9.96875 4.203125 18.890625 
z
" id="ArialMT-51"/>
       </defs>
       <use xlink:href="#ArialMT-48"/>
       <use x="55.615234" xlink:href="#ArialMT-46"/>
       <use x="83.398438" xlink:href="#ArialMT-51"/>
      </g>
     </g>
    </g>
   </g>
   <g id="line2d_12">
    <path clip-path="url(#p69b6f190b2)" d="M 36 87.136153 
L 43.44 56.906825 
L 50.88 86.359915 
L 58.32 109.121251 
L 65.76 124.654791 
L 73.2 133.738235 
L 80.64 138.316572 
L 88.08 140.495896 
L 95.52 141.691009 
L 102.96 142.209477 
L 110.4 142.519972 
L 117.84 142.719158 
L 125.28 142.878799 
L 132.72 143.001825 
L 140.16 143.073591 
L 147.6 143.157073 
L 155.04 143.20394 
L 162.48 143.23909 
L 169.92 143.272776 
L 177.36 143.294745 
L 184.8 143.324037 
L 192.24 143.328431 
L 199.68 143.334289 
L 207.12 143.359188 
L 214.56 143.366511 
L 222 143.373834 
L 229.44 143.375298 
L 236.88 143.391409 
L 244.32 143.391409 
L 251.76 143.397267 
L 259.2 143.392873 
L 266.64 143.403126 
L 274.08 143.403126 
L 281.52 143.400196 
L 288.96 143.398732 
L 289 143.398732 
" style="fill:none;stroke:#e98d6b;stroke-linecap:round;stroke-width:3;"/>
    <defs>
     <path d="M 0 6 
C 1.591219 6 3.117479 5.367802 4.242641 4.242641 
C 5.367802 3.117479 6 1.591219 6 0 
C 6 -1.591219 5.367802 -3.117479 4.242641 -4.242641 
C 3.117479 -5.367802 1.591219 -6 0 -6 
C -1.591219 -6 -3.117479 -5.367802 -4.242641 -4.242641 
C -5.367802 -3.117479 -6 -1.591219 -6 0 
C -6 1.591219 -5.367802 3.117479 -4.242641 4.242641 
C -3.117479 5.367802 -1.591219 6 0 6 
z
" id="mcb201ac65f" style="stroke:#ffffff;stroke-width:0.75;"/>
    </defs>
    <g clip-path="url(#p69b6f190b2)">
     <use style="fill:#e98d6b;stroke:#ffffff;stroke-width:0.75;" x="36" xlink:href="#mcb201ac65f" y="87.136153"/>
     <use style="fill:#e98d6b;stroke:#ffffff;stroke-width:0.75;" x="43.44" xlink:href="#mcb201ac65f" y="56.906825"/>
     <use style="fill:#e98d6b;stroke:#ffffff;stroke-width:0.75;" x="50.88" xlink:href="#mcb201ac65f" y="86.359915"/>
     <use style="fill:#e98d6b;stroke:#ffffff;stroke-width:0.75;" x="58.32" xlink:href="#mcb201ac65f" y="109.121251"/>
     <use style="fill:#e98d6b;stroke:#ffffff;stroke-width:0.75;" x="65.76" xlink:href="#mcb201ac65f" y="124.654791"/>
     <use style="fill:#e98d6b;stroke:#ffffff;stroke-width:0.75;" x="73.2" xlink:href="#mcb201ac65f" y="133.738235"/>
     <use style="fill:#e98d6b;stroke:#ffffff;stroke-width:0.75;" x="80.64" xlink:href="#mcb201ac65f" y="138.316572"/>
     <use style="fill:#e98d6b;stroke:#ffffff;stroke-width:0.75;" x="88.08" xlink:href="#mcb201ac65f" y="140.495896"/>
     <use style="fill:#e98d6b;stroke:#ffffff;stroke-width:0.75;" x="95.52" xlink:href="#mcb201ac65f" y="141.691009"/>
     <use style="fill:#e98d6b;stroke:#ffffff;stroke-width:0.75;" x="102.96" xlink:href="#mcb201ac65f" y="142.209477"/>
     <use style="fill:#e98d6b;stroke:#ffffff;stroke-width:0.75;" x="110.4" xlink:href="#mcb201ac65f" y="142.519972"/>
     <use style="fill:#e98d6b;stroke:#ffffff;stroke-width:0.75;" x="117.84" xlink:href="#mcb201ac65f" y="142.719158"/>
     <use style="fill:#e98d6b;stroke:#ffffff;stroke-width:0.75;" x="125.28" xlink:href="#mcb201ac65f" y="142.878799"/>
     <use style="fill:#e98d6b;stroke:#ffffff;stroke-width:0.75;" x="132.72" xlink:href="#mcb201ac65f" y="143.001825"/>
     <use style="fill:#e98d6b;stroke:#ffffff;stroke-width:0.75;" x="140.16" xlink:href="#mcb201ac65f" y="143.073591"/>
     <use style="fill:#e98d6b;stroke:#ffffff;stroke-width:0.75;" x="147.6" xlink:href="#mcb201ac65f" y="143.157073"/>
     <use style="fill:#e98d6b;stroke:#ffffff;stroke-width:0.75;" x="155.04" xlink:href="#mcb201ac65f" y="143.20394"/>
     <use style="fill:#e98d6b;stroke:#ffffff;stroke-width:0.75;" x="162.48" xlink:href="#mcb201ac65f" y="143.23909"/>
     <use style="fill:#e98d6b;stroke:#ffffff;stroke-width:0.75;" x="169.92" xlink:href="#mcb201ac65f" y="143.272776"/>
     <use style="fill:#e98d6b;stroke:#ffffff;stroke-width:0.75;" x="177.36" xlink:href="#mcb201ac65f" y="143.294745"/>
     <use style="fill:#e98d6b;stroke:#ffffff;stroke-width:0.75;" x="184.8" xlink:href="#mcb201ac65f" y="143.324037"/>
     <use style="fill:#e98d6b;stroke:#ffffff;stroke-width:0.75;" x="192.24" xlink:href="#mcb201ac65f" y="143.328431"/>
     <use style="fill:#e98d6b;stroke:#ffffff;stroke-width:0.75;" x="199.68" xlink:href="#mcb201ac65f" y="143.334289"/>
     <use style="fill:#e98d6b;stroke:#ffffff;stroke-width:0.75;" x="207.12" xlink:href="#mcb201ac65f" y="143.359188"/>
     <use style="fill:#e98d6b;stroke:#ffffff;stroke-width:0.75;" x="214.56" xlink:href="#mcb201ac65f" y="143.366511"/>
     <use style="fill:#e98d6b;stroke:#ffffff;stroke-width:0.75;" x="222" xlink:href="#mcb201ac65f" y="143.373834"/>
     <use style="fill:#e98d6b;stroke:#ffffff;stroke-width:0.75;" x="229.44" xlink:href="#mcb201ac65f" y="143.375298"/>
     <use style="fill:#e98d6b;stroke:#ffffff;stroke-width:0.75;" x="236.88" xlink:href="#mcb201ac65f" y="143.391409"/>
     <use style="fill:#e98d6b;stroke:#ffffff;stroke-width:0.75;" x="244.32" xlink:href="#mcb201ac65f" y="143.391409"/>
     <use style="fill:#e98d6b;stroke:#ffffff;stroke-width:0.75;" x="251.76" xlink:href="#mcb201ac65f" y="143.397267"/>
     <use style="fill:#e98d6b;stroke:#ffffff;stroke-width:0.75;" x="259.2" xlink:href="#mcb201ac65f" y="143.392873"/>
     <use style="fill:#e98d6b;stroke:#ffffff;stroke-width:0.75;" x="266.64" xlink:href="#mcb201ac65f" y="143.403126"/>
     <use style="fill:#e98d6b;stroke:#ffffff;stroke-width:0.75;" x="274.08" xlink:href="#mcb201ac65f" y="143.403126"/>
     <use style="fill:#e98d6b;stroke:#ffffff;stroke-width:0.75;" x="281.52" xlink:href="#mcb201ac65f" y="143.400196"/>
     <use style="fill:#e98d6b;stroke:#ffffff;stroke-width:0.75;" x="288.96" xlink:href="#mcb201ac65f" y="143.398732"/>
     <use style="fill:#e98d6b;stroke:#ffffff;stroke-width:0.75;" x="296.4" xlink:href="#mcb201ac65f" y="143.398732"/>
     <use style="fill:#e98d6b;stroke:#ffffff;stroke-width:0.75;" x="303.84" xlink:href="#mcb201ac65f" y="143.403126"/>
     <use style="fill:#e98d6b;stroke:#ffffff;stroke-width:0.75;" x="311.28" xlink:href="#mcb201ac65f" y="143.407519"/>
     <use style="fill:#e98d6b;stroke:#ffffff;stroke-width:0.75;" x="318.72" xlink:href="#mcb201ac65f" y="143.403126"/>
     <use style="fill:#e98d6b;stroke:#ffffff;stroke-width:0.75;" x="326.16" xlink:href="#mcb201ac65f" y="143.403126"/>
     <use style="fill:#e98d6b;stroke:#ffffff;stroke-width:0.75;" x="333.6" xlink:href="#mcb201ac65f" y="143.407519"/>
     <use style="fill:#e98d6b;stroke:#ffffff;stroke-width:0.75;" x="341.04" xlink:href="#mcb201ac65f" y="143.408984"/>
     <use style="fill:#e98d6b;stroke:#ffffff;stroke-width:0.75;" x="348.48" xlink:href="#mcb201ac65f" y="143.408984"/>
     <use style="fill:#e98d6b;stroke:#ffffff;stroke-width:0.75;" x="355.92" xlink:href="#mcb201ac65f" y="143.40459"/>
     <use style="fill:#e98d6b;stroke:#ffffff;stroke-width:0.75;" x="363.36" xlink:href="#mcb201ac65f" y="143.407519"/>
     <use style="fill:#e98d6b;stroke:#ffffff;stroke-width:0.75;" x="370.8" xlink:href="#mcb201ac65f" y="143.408984"/>
     <use style="fill:#e98d6b;stroke:#ffffff;stroke-width:0.75;" x="378.24" xlink:href="#mcb201ac65f" y="143.406055"/>
     <use style="fill:#e98d6b;stroke:#ffffff;stroke-width:0.75;" x="385.68" xlink:href="#mcb201ac65f" y="143.407519"/>
     <use style="fill:#e98d6b;stroke:#ffffff;stroke-width:0.75;" x="393.12" xlink:href="#mcb201ac65f" y="143.40459"/>
     <use style="fill:#e98d6b;stroke:#ffffff;stroke-width:0.75;" x="400.56" xlink:href="#mcb201ac65f" y="143.408984"/>
     <use style="fill:#e98d6b;stroke:#ffffff;stroke-width:0.75;" x="408" xlink:href="#mcb201ac65f" y="143.407519"/>
     <use style="fill:#e98d6b;stroke:#ffffff;stroke-width:0.75;" x="415.44" xlink:href="#mcb201ac65f" y="143.408984"/>
     <use style="fill:#e98d6b;stroke:#ffffff;stroke-width:0.75;" x="422.88" xlink:href="#mcb201ac65f" y="143.408984"/>
     <use style="fill:#e98d6b;stroke:#ffffff;stroke-width:0.75;" x="430.32" xlink:href="#mcb201ac65f" y="143.406055"/>
     <use style="fill:#e98d6b;stroke:#ffffff;stroke-width:0.75;" x="437.76" xlink:href="#mcb201ac65f" y="143.408984"/>
     <use style="fill:#e98d6b;stroke:#ffffff;stroke-width:0.75;" x="445.2" xlink:href="#mcb201ac65f" y="143.408984"/>
     <use style="fill:#e98d6b;stroke:#ffffff;stroke-width:0.75;" x="452.64" xlink:href="#mcb201ac65f" y="143.408984"/>
     <use style="fill:#e98d6b;stroke:#ffffff;stroke-width:0.75;" x="460.08" xlink:href="#mcb201ac65f" y="143.408984"/>
     <use style="fill:#e98d6b;stroke:#ffffff;stroke-width:0.75;" x="467.52" xlink:href="#mcb201ac65f" y="143.408984"/>
     <use style="fill:#e98d6b;stroke:#ffffff;stroke-width:0.75;" x="474.96" xlink:href="#mcb201ac65f" y="143.408984"/>
     <use style="fill:#e98d6b;stroke:#ffffff;stroke-width:0.75;" x="482.4" xlink:href="#mcb201ac65f" y="143.408984"/>
     <use style="fill:#e98d6b;stroke:#ffffff;stroke-width:0.75;" x="489.84" xlink:href="#mcb201ac65f" y="143.408984"/>
     <use style="fill:#e98d6b;stroke:#ffffff;stroke-width:0.75;" x="497.28" xlink:href="#mcb201ac65f" y="143.408984"/>
    </g>
   </g>
   <g id="line2d_13">
    <path clip-path="url(#p69b6f190b2)" d="M 36 86.942528 
L 43.44 56.200428 
L 50.88 86.87662 
L 58.32 109.109354 
L 65.76 124.664944 
L 73.2 133.757224 
L 80.64 138.417603 
L 88.08 140.712643 
L 95.52 141.784735 
L 102.96 142.235834 
L 110.4 142.515574 
L 117.84 142.69572 
L 125.28 142.881725 
L 132.72 142.973996 
L 140.16 143.08677 
L 147.6 143.171718 
L 155.04 143.212727 
L 162.48 143.23616 
L 169.92 143.242019 
L 177.36 143.275705 
L 184.8 143.319643 
L 192.24 143.315249 
L 199.68 143.353329 
L 207.12 143.359187 
L 214.56 143.36651 
L 222 143.376763 
L 229.44 143.384086 
L 236.88 143.378227 
L 244.32 143.388479 
L 251.76 143.392873 
L 259.2 143.38555 
L 266.64 143.397267 
L 274.08 143.40459 
L 281.52 143.40459 
L 288.96 143.397267 
L 289 143.397283 
" style="fill:none;stroke:#e98d6b;stroke-dasharray:12,4.5;stroke-dashoffset:0;stroke-width:3;"/>
    <defs>
     <path d="M -3 6 
L 0 3 
L 3 6 
L 6 3 
L 3 0 
L 6 -3 
L 3 -6 
L 0 -3 
L -3 -6 
L -6 -3 
L -3 0 
L -6 3 
z
" id="m887e9e9cd8" style="stroke:#ffffff;stroke-linejoin:miter;stroke-width:0.75;"/>
    </defs>
    <g clip-path="url(#p69b6f190b2)">
     <use style="fill:#e98d6b;stroke:#ffffff;stroke-linejoin:miter;stroke-width:0.75;" x="36" xlink:href="#m887e9e9cd8" y="86.942528"/>
     <use style="fill:#e98d6b;stroke:#ffffff;stroke-linejoin:miter;stroke-width:0.75;" x="43.44" xlink:href="#m887e9e9cd8" y="56.200428"/>
     <use style="fill:#e98d6b;stroke:#ffffff;stroke-linejoin:miter;stroke-width:0.75;" x="50.88" xlink:href="#m887e9e9cd8" y="86.87662"/>
     <use style="fill:#e98d6b;stroke:#ffffff;stroke-linejoin:miter;stroke-width:0.75;" x="58.32" xlink:href="#m887e9e9cd8" y="109.109354"/>
     <use style="fill:#e98d6b;stroke:#ffffff;stroke-linejoin:miter;stroke-width:0.75;" x="65.76" xlink:href="#m887e9e9cd8" y="124.664944"/>
     <use style="fill:#e98d6b;stroke:#ffffff;stroke-linejoin:miter;stroke-width:0.75;" x="73.2" xlink:href="#m887e9e9cd8" y="133.757224"/>
     <use style="fill:#e98d6b;stroke:#ffffff;stroke-linejoin:miter;stroke-width:0.75;" x="80.64" xlink:href="#m887e9e9cd8" y="138.417603"/>
     <use style="fill:#e98d6b;stroke:#ffffff;stroke-linejoin:miter;stroke-width:0.75;" x="88.08" xlink:href="#m887e9e9cd8" y="140.712643"/>
     <use style="fill:#e98d6b;stroke:#ffffff;stroke-linejoin:miter;stroke-width:0.75;" x="95.52" xlink:href="#m887e9e9cd8" y="141.784735"/>
     <use style="fill:#e98d6b;stroke:#ffffff;stroke-linejoin:miter;stroke-width:0.75;" x="102.96" xlink:href="#m887e9e9cd8" y="142.235834"/>
     <use style="fill:#e98d6b;stroke:#ffffff;stroke-linejoin:miter;stroke-width:0.75;" x="110.4" xlink:href="#m887e9e9cd8" y="142.515574"/>
     <use style="fill:#e98d6b;stroke:#ffffff;stroke-linejoin:miter;stroke-width:0.75;" x="117.84" xlink:href="#m887e9e9cd8" y="142.69572"/>
     <use style="fill:#e98d6b;stroke:#ffffff;stroke-linejoin:miter;stroke-width:0.75;" x="125.28" xlink:href="#m887e9e9cd8" y="142.881725"/>
     <use style="fill:#e98d6b;stroke:#ffffff;stroke-linejoin:miter;stroke-width:0.75;" x="132.72" xlink:href="#m887e9e9cd8" y="142.973996"/>
     <use style="fill:#e98d6b;stroke:#ffffff;stroke-linejoin:miter;stroke-width:0.75;" x="140.16" xlink:href="#m887e9e9cd8" y="143.08677"/>
     <use style="fill:#e98d6b;stroke:#ffffff;stroke-linejoin:miter;stroke-width:0.75;" x="147.6" xlink:href="#m887e9e9cd8" y="143.171718"/>
     <use style="fill:#e98d6b;stroke:#ffffff;stroke-linejoin:miter;stroke-width:0.75;" x="155.04" xlink:href="#m887e9e9cd8" y="143.212727"/>
     <use style="fill:#e98d6b;stroke:#ffffff;stroke-linejoin:miter;stroke-width:0.75;" x="162.48" xlink:href="#m887e9e9cd8" y="143.23616"/>
     <use style="fill:#e98d6b;stroke:#ffffff;stroke-linejoin:miter;stroke-width:0.75;" x="169.92" xlink:href="#m887e9e9cd8" y="143.242019"/>
     <use style="fill:#e98d6b;stroke:#ffffff;stroke-linejoin:miter;stroke-width:0.75;" x="177.36" xlink:href="#m887e9e9cd8" y="143.275705"/>
     <use style="fill:#e98d6b;stroke:#ffffff;stroke-linejoin:miter;stroke-width:0.75;" x="184.8" xlink:href="#m887e9e9cd8" y="143.319643"/>
     <use style="fill:#e98d6b;stroke:#ffffff;stroke-linejoin:miter;stroke-width:0.75;" x="192.24" xlink:href="#m887e9e9cd8" y="143.315249"/>
     <use style="fill:#e98d6b;stroke:#ffffff;stroke-linejoin:miter;stroke-width:0.75;" x="199.68" xlink:href="#m887e9e9cd8" y="143.353329"/>
     <use style="fill:#e98d6b;stroke:#ffffff;stroke-linejoin:miter;stroke-width:0.75;" x="207.12" xlink:href="#m887e9e9cd8" y="143.359187"/>
     <use style="fill:#e98d6b;stroke:#ffffff;stroke-linejoin:miter;stroke-width:0.75;" x="214.56" xlink:href="#m887e9e9cd8" y="143.36651"/>
     <use style="fill:#e98d6b;stroke:#ffffff;stroke-linejoin:miter;stroke-width:0.75;" x="222" xlink:href="#m887e9e9cd8" y="143.376763"/>
     <use style="fill:#e98d6b;stroke:#ffffff;stroke-linejoin:miter;stroke-width:0.75;" x="229.44" xlink:href="#m887e9e9cd8" y="143.384086"/>
     <use style="fill:#e98d6b;stroke:#ffffff;stroke-linejoin:miter;stroke-width:0.75;" x="236.88" xlink:href="#m887e9e9cd8" y="143.378227"/>
     <use style="fill:#e98d6b;stroke:#ffffff;stroke-linejoin:miter;stroke-width:0.75;" x="244.32" xlink:href="#m887e9e9cd8" y="143.388479"/>
     <use style="fill:#e98d6b;stroke:#ffffff;stroke-linejoin:miter;stroke-width:0.75;" x="251.76" xlink:href="#m887e9e9cd8" y="143.392873"/>
     <use style="fill:#e98d6b;stroke:#ffffff;stroke-linejoin:miter;stroke-width:0.75;" x="259.2" xlink:href="#m887e9e9cd8" y="143.38555"/>
     <use style="fill:#e98d6b;stroke:#ffffff;stroke-linejoin:miter;stroke-width:0.75;" x="266.64" xlink:href="#m887e9e9cd8" y="143.397267"/>
     <use style="fill:#e98d6b;stroke:#ffffff;stroke-linejoin:miter;stroke-width:0.75;" x="274.08" xlink:href="#m887e9e9cd8" y="143.40459"/>
     <use style="fill:#e98d6b;stroke:#ffffff;stroke-linejoin:miter;stroke-width:0.75;" x="281.52" xlink:href="#m887e9e9cd8" y="143.40459"/>
     <use style="fill:#e98d6b;stroke:#ffffff;stroke-linejoin:miter;stroke-width:0.75;" x="288.96" xlink:href="#m887e9e9cd8" y="143.397267"/>
     <use style="fill:#e98d6b;stroke:#ffffff;stroke-linejoin:miter;stroke-width:0.75;" x="296.4" xlink:href="#m887e9e9cd8" y="143.400196"/>
     <use style="fill:#e98d6b;stroke:#ffffff;stroke-linejoin:miter;stroke-width:0.75;" x="303.84" xlink:href="#m887e9e9cd8" y="143.40459"/>
     <use style="fill:#e98d6b;stroke:#ffffff;stroke-linejoin:miter;stroke-width:0.75;" x="311.28" xlink:href="#m887e9e9cd8" y="143.406055"/>
     <use style="fill:#e98d6b;stroke:#ffffff;stroke-linejoin:miter;stroke-width:0.75;" x="318.72" xlink:href="#m887e9e9cd8" y="143.406055"/>
     <use style="fill:#e98d6b;stroke:#ffffff;stroke-linejoin:miter;stroke-width:0.75;" x="326.16" xlink:href="#m887e9e9cd8" y="143.40459"/>
     <use style="fill:#e98d6b;stroke:#ffffff;stroke-linejoin:miter;stroke-width:0.75;" x="333.6" xlink:href="#m887e9e9cd8" y="143.403126"/>
     <use style="fill:#e98d6b;stroke:#ffffff;stroke-linejoin:miter;stroke-width:0.75;" x="341.04" xlink:href="#m887e9e9cd8" y="143.406055"/>
     <use style="fill:#e98d6b;stroke:#ffffff;stroke-linejoin:miter;stroke-width:0.75;" x="348.48" xlink:href="#m887e9e9cd8" y="143.408984"/>
     <use style="fill:#e98d6b;stroke:#ffffff;stroke-linejoin:miter;stroke-width:0.75;" x="355.92" xlink:href="#m887e9e9cd8" y="143.408984"/>
     <use style="fill:#e98d6b;stroke:#ffffff;stroke-linejoin:miter;stroke-width:0.75;" x="363.36" xlink:href="#m887e9e9cd8" y="143.408984"/>
     <use style="fill:#e98d6b;stroke:#ffffff;stroke-linejoin:miter;stroke-width:0.75;" x="370.8" xlink:href="#m887e9e9cd8" y="143.407519"/>
     <use style="fill:#e98d6b;stroke:#ffffff;stroke-linejoin:miter;stroke-width:0.75;" x="378.24" xlink:href="#m887e9e9cd8" y="143.408984"/>
     <use style="fill:#e98d6b;stroke:#ffffff;stroke-linejoin:miter;stroke-width:0.75;" x="385.68" xlink:href="#m887e9e9cd8" y="143.408984"/>
     <use style="fill:#e98d6b;stroke:#ffffff;stroke-linejoin:miter;stroke-width:0.75;" x="393.12" xlink:href="#m887e9e9cd8" y="143.408984"/>
     <use style="fill:#e98d6b;stroke:#ffffff;stroke-linejoin:miter;stroke-width:0.75;" x="400.56" xlink:href="#m887e9e9cd8" y="143.408984"/>
     <use style="fill:#e98d6b;stroke:#ffffff;stroke-linejoin:miter;stroke-width:0.75;" x="408" xlink:href="#m887e9e9cd8" y="143.407519"/>
     <use style="fill:#e98d6b;stroke:#ffffff;stroke-linejoin:miter;stroke-width:0.75;" x="415.44" xlink:href="#m887e9e9cd8" y="143.408984"/>
     <use style="fill:#e98d6b;stroke:#ffffff;stroke-linejoin:miter;stroke-width:0.75;" x="422.88" xlink:href="#m887e9e9cd8" y="143.407519"/>
     <use style="fill:#e98d6b;stroke:#ffffff;stroke-linejoin:miter;stroke-width:0.75;" x="430.32" xlink:href="#m887e9e9cd8" y="143.408984"/>
     <use style="fill:#e98d6b;stroke:#ffffff;stroke-linejoin:miter;stroke-width:0.75;" x="437.76" xlink:href="#m887e9e9cd8" y="143.408984"/>
     <use style="fill:#e98d6b;stroke:#ffffff;stroke-linejoin:miter;stroke-width:0.75;" x="445.2" xlink:href="#m887e9e9cd8" y="143.408984"/>
     <use style="fill:#e98d6b;stroke:#ffffff;stroke-linejoin:miter;stroke-width:0.75;" x="452.64" xlink:href="#m887e9e9cd8" y="143.408984"/>
     <use style="fill:#e98d6b;stroke:#ffffff;stroke-linejoin:miter;stroke-width:0.75;" x="460.08" xlink:href="#m887e9e9cd8" y="143.408984"/>
     <use style="fill:#e98d6b;stroke:#ffffff;stroke-linejoin:miter;stroke-width:0.75;" x="467.52" xlink:href="#m887e9e9cd8" y="143.408984"/>
     <use style="fill:#e98d6b;stroke:#ffffff;stroke-linejoin:miter;stroke-width:0.75;" x="474.96" xlink:href="#m887e9e9cd8" y="143.408984"/>
     <use style="fill:#e98d6b;stroke:#ffffff;stroke-linejoin:miter;stroke-width:0.75;" x="482.4" xlink:href="#m887e9e9cd8" y="143.408984"/>
     <use style="fill:#e98d6b;stroke:#ffffff;stroke-linejoin:miter;stroke-width:0.75;" x="489.84" xlink:href="#m887e9e9cd8" y="143.408984"/>
     <use style="fill:#e98d6b;stroke:#ffffff;stroke-linejoin:miter;stroke-width:0.75;" x="497.28" xlink:href="#m887e9e9cd8" y="143.408984"/>
    </g>
   </g>
   <g id="line2d_14"/>
   <g id="line2d_15"/>
   <g id="patch_3">
    <path d="M 36 147.769412 
L 36 51.84 
" style="fill:none;stroke:#cccccc;stroke-linecap:square;stroke-linejoin:miter;stroke-width:2.5;"/>
   </g>
   <g id="patch_4">
    <path d="M 259.2 147.769412 
L 259.2 51.84 
" style="fill:none;stroke:#cccccc;stroke-linecap:square;stroke-linejoin:miter;stroke-width:2.5;"/>
   </g>
   <g id="patch_5">
    <path d="M 36 147.769412 
L 259.2 147.769412 
" style="fill:none;stroke:#cccccc;stroke-linecap:square;stroke-linejoin:miter;stroke-width:2.5;"/>
   </g>
   <g id="patch_6">
    <path d="M 36 51.84 
L 259.2 51.84 
" style="fill:none;stroke:#cccccc;stroke-linecap:square;stroke-linejoin:miter;stroke-width:2.5;"/>
   </g>
   <g id="text_5">
    <!-- IM1 -->
    <g style="fill:#262626;" transform="translate(137.59875 45.84)scale(0.12 -0.12)">
     <defs>
      <path d="M 9.328125 0 
L 9.328125 71.578125 
L 18.796875 71.578125 
L 18.796875 0 
z
" id="ArialMT-73"/>
      <path d="M 7.421875 0 
L 7.421875 71.578125 
L 21.6875 71.578125 
L 38.625 20.90625 
Q 40.96875 13.8125 42.046875 10.296875 
Q 43.265625 14.203125 45.84375 21.78125 
L 62.984375 71.578125 
L 75.734375 71.578125 
L 75.734375 0 
L 66.609375 0 
L 66.609375 59.90625 
L 45.796875 0 
L 37.25 0 
L 16.546875 60.9375 
L 16.546875 0 
z
" id="ArialMT-77"/>
     </defs>
     <use xlink:href="#ArialMT-73"/>
     <use x="27.783203" xlink:href="#ArialMT-77"/>
     <use x="111.083984" xlink:href="#ArialMT-49"/>
    </g>
   </g>
   <g id="legend_1">
    <g id="patch_7">
     <path d="M 172.275937 92.0175 
L 251.5 92.0175 
Q 253.7 92.0175 253.7 89.8175 
L 253.7 59.54 
Q 253.7 57.34 251.5 57.34 
L 172.275937 57.34 
Q 170.075938 57.34 170.075938 59.54 
L 170.075938 89.8175 
Q 170.075938 92.0175 172.275937 92.0175 
z
" style="fill:#ffffff;opacity:0.8;stroke:#cccccc;stroke-linejoin:miter;stroke-width:2;"/>
    </g>
    <g id="line2d_16">
     <path d="M 174.475938 65.763594 
L 196.475938 65.763594 
" style="fill:none;stroke:#e98d6b;stroke-linecap:round;stroke-width:3;"/>
    </g>
    <g id="line2d_17">
     <defs>
      <path d="M 0 6 
C 1.591219 6 3.117479 5.367802 4.242641 4.242641 
C 5.367802 3.117479 6 1.591219 6 0 
C 6 -1.591219 5.367802 -3.117479 4.242641 -4.242641 
C 3.117479 -5.367802 1.591219 -6 0 -6 
C -1.591219 -6 -3.117479 -5.367802 -4.242641 -4.242641 
C -5.367802 -3.117479 -6 -1.591219 -6 0 
C -6 1.591219 -5.367802 3.117479 -4.242641 4.242641 
C -3.117479 5.367802 -1.591219 6 0 6 
z
" id="m9e49f18200" style="stroke:#e98d6b;"/>
     </defs>
     <g>
      <use style="fill:#e98d6b;stroke:#e98d6b;" x="185.475938" xlink:href="#m9e49f18200" y="65.763594"/>
     </g>
    </g>
    <g id="text_6">
     <!-- Region I -->
     <g style="fill:#262626;" transform="translate(205.275938 69.613594)scale(0.11 -0.11)">
      <defs>
       <path d="M 7.859375 0 
L 7.859375 71.578125 
L 39.59375 71.578125 
Q 49.171875 71.578125 54.140625 69.640625 
Q 59.125 67.71875 62.109375 62.828125 
Q 65.09375 57.953125 65.09375 52.046875 
Q 65.09375 44.4375 60.15625 39.203125 
Q 55.21875 33.984375 44.921875 32.5625 
Q 48.6875 30.765625 50.640625 29 
Q 54.78125 25.203125 58.5 19.484375 
L 70.953125 0 
L 59.03125 0 
L 49.5625 14.890625 
Q 45.40625 21.34375 42.71875 24.75 
Q 40.046875 28.171875 37.921875 29.53125 
Q 35.796875 30.90625 33.59375 31.453125 
Q 31.984375 31.78125 28.328125 31.78125 
L 17.328125 31.78125 
L 17.328125 0 
z
M 17.328125 39.984375 
L 37.703125 39.984375 
Q 44.1875 39.984375 47.84375 41.328125 
Q 51.515625 42.671875 53.421875 45.625 
Q 55.328125 48.578125 55.328125 52.046875 
Q 55.328125 57.125 51.640625 60.390625 
Q 47.953125 63.671875 39.984375 63.671875 
L 17.328125 63.671875 
z
" id="ArialMT-82"/>
       <path d="M 42.09375 16.703125 
L 51.171875 15.578125 
Q 49.03125 7.625 43.21875 3.21875 
Q 37.40625 -1.171875 28.375 -1.171875 
Q 17 -1.171875 10.328125 5.828125 
Q 3.65625 12.84375 3.65625 25.484375 
Q 3.65625 38.578125 10.390625 45.796875 
Q 17.140625 53.03125 27.875 53.03125 
Q 38.28125 53.03125 44.875 45.953125 
Q 51.46875 38.875 51.46875 26.03125 
Q 51.46875 25.25 51.421875 23.6875 
L 12.75 23.6875 
Q 13.234375 15.140625 17.578125 10.59375 
Q 21.921875 6.0625 28.421875 6.0625 
Q 33.25 6.0625 36.671875 8.59375 
Q 40.09375 11.140625 42.09375 16.703125 
z
M 13.234375 30.90625 
L 42.1875 30.90625 
Q 41.609375 37.453125 38.875 40.71875 
Q 34.671875 45.796875 27.984375 45.796875 
Q 21.921875 45.796875 17.796875 41.75 
Q 13.671875 37.703125 13.234375 30.90625 
z
" id="ArialMT-101"/>
       <path d="M 4.984375 -4.296875 
L 13.53125 -5.5625 
Q 14.0625 -9.515625 16.5 -11.328125 
Q 19.78125 -13.765625 25.4375 -13.765625 
Q 31.546875 -13.765625 34.859375 -11.328125 
Q 38.1875 -8.890625 39.359375 -4.5 
Q 40.046875 -1.8125 39.984375 6.78125 
Q 34.234375 0 25.640625 0 
Q 14.9375 0 9.078125 7.71875 
Q 3.21875 15.4375 3.21875 26.21875 
Q 3.21875 33.640625 5.90625 39.90625 
Q 8.59375 46.1875 13.6875 49.609375 
Q 18.796875 53.03125 25.6875 53.03125 
Q 34.859375 53.03125 40.828125 45.609375 
L 40.828125 51.859375 
L 48.921875 51.859375 
L 48.921875 7.03125 
Q 48.921875 -5.078125 46.453125 -10.125 
Q 44 -15.1875 38.640625 -18.109375 
Q 33.296875 -21.046875 25.484375 -21.046875 
Q 16.21875 -21.046875 10.5 -16.875 
Q 4.78125 -12.703125 4.984375 -4.296875 
z
M 12.25 26.859375 
Q 12.25 16.65625 16.296875 11.96875 
Q 20.359375 7.28125 26.46875 7.28125 
Q 32.515625 7.28125 36.609375 11.9375 
Q 40.71875 16.609375 40.71875 26.5625 
Q 40.71875 36.078125 36.5 40.90625 
Q 32.28125 45.75 26.3125 45.75 
Q 20.453125 45.75 16.34375 40.984375 
Q 12.25 36.234375 12.25 26.859375 
z
" id="ArialMT-103"/>
       <path d="M 6.640625 61.46875 
L 6.640625 71.578125 
L 15.4375 71.578125 
L 15.4375 61.46875 
z
M 6.640625 0 
L 6.640625 51.859375 
L 15.4375 51.859375 
L 15.4375 0 
z
" id="ArialMT-105"/>
       <path d="M 3.328125 25.921875 
Q 3.328125 40.328125 11.328125 47.265625 
Q 18.015625 53.03125 27.640625 53.03125 
Q 38.328125 53.03125 45.109375 46.015625 
Q 51.90625 39.015625 51.90625 26.65625 
Q 51.90625 16.65625 48.90625 10.90625 
Q 45.90625 5.171875 40.15625 2 
Q 34.421875 -1.171875 27.640625 -1.171875 
Q 16.75 -1.171875 10.03125 5.8125 
Q 3.328125 12.796875 3.328125 25.921875 
z
M 12.359375 25.921875 
Q 12.359375 15.96875 16.703125 11.015625 
Q 21.046875 6.0625 27.640625 6.0625 
Q 34.1875 6.0625 38.53125 11.03125 
Q 42.875 16.015625 42.875 26.21875 
Q 42.875 35.84375 38.5 40.796875 
Q 34.125 45.75 27.640625 45.75 
Q 21.046875 45.75 16.703125 40.8125 
Q 12.359375 35.890625 12.359375 25.921875 
z
" id="ArialMT-111"/>
       <path d="M 6.59375 0 
L 6.59375 51.859375 
L 14.5 51.859375 
L 14.5 44.484375 
Q 20.21875 53.03125 31 53.03125 
Q 35.6875 53.03125 39.625 51.34375 
Q 43.5625 49.65625 45.515625 46.921875 
Q 47.46875 44.1875 48.25 40.4375 
Q 48.734375 37.984375 48.734375 31.890625 
L 48.734375 0 
L 39.9375 0 
L 39.9375 31.546875 
Q 39.9375 36.921875 38.90625 39.578125 
Q 37.890625 42.234375 35.28125 43.8125 
Q 32.671875 45.40625 29.15625 45.40625 
Q 23.53125 45.40625 19.453125 41.84375 
Q 15.375 38.28125 15.375 28.328125 
L 15.375 0 
z
" id="ArialMT-110"/>
       <path id="ArialMT-32"/>
      </defs>
      <use xlink:href="#ArialMT-82"/>
      <use x="72.216797" xlink:href="#ArialMT-101"/>
      <use x="127.832031" xlink:href="#ArialMT-103"/>
      <use x="183.447266" xlink:href="#ArialMT-105"/>
      <use x="205.664062" xlink:href="#ArialMT-111"/>
      <use x="261.279297" xlink:href="#ArialMT-110"/>
      <use x="316.894531" xlink:href="#ArialMT-32"/>
      <use x="344.677734" xlink:href="#ArialMT-73"/>
     </g>
    </g>
    <g id="line2d_18">
     <path d="M 174.475938 81.452344 
L 196.475938 81.452344 
" style="fill:none;stroke:#e98d6b;stroke-dasharray:12,4.5;stroke-dashoffset:0;stroke-width:3;"/>
    </g>
    <g id="line2d_19">
     <defs>
      <path d="M -3 6 
L 0 3 
L 3 6 
L 6 3 
L 3 0 
L 6 -3 
L 3 -6 
L 0 -3 
L -3 -6 
L -6 -3 
L -3 0 
L -6 3 
z
" id="m7105f5a8a0" style="stroke:#e98d6b;stroke-linejoin:miter;"/>
     </defs>
     <g>
      <use style="fill:#e98d6b;stroke:#e98d6b;stroke-linejoin:miter;" x="185.475938" xlink:href="#m7105f5a8a0" y="81.452344"/>
     </g>
    </g>
    <g id="text_7">
     <!-- Region II -->
     <g style="fill:#262626;" transform="translate(205.275938 85.302344)scale(0.11 -0.11)">
      <use xlink:href="#ArialMT-82"/>
      <use x="72.216797" xlink:href="#ArialMT-101"/>
      <use x="127.832031" xlink:href="#ArialMT-103"/>
      <use x="183.447266" xlink:href="#ArialMT-105"/>
      <use x="205.664062" xlink:href="#ArialMT-111"/>
      <use x="261.279297" xlink:href="#ArialMT-110"/>
      <use x="316.894531" xlink:href="#ArialMT-32"/>
      <use x="344.677734" xlink:href="#ArialMT-73"/>
      <use x="372.460938" xlink:href="#ArialMT-73"/>
     </g>
    </g>
   </g>
  </g>
  <g id="axes_2">
   <g id="patch_8">
    <path d="M 36 262.884706 
L 259.2 262.884706 
L 259.2 166.955294 
L 36 166.955294 
z
" style="fill:#ffffff;"/>
   </g>
   <g id="matplotlib.axis_3">
    <g id="xtick_8">
     <g id="line2d_20">
      <path clip-path="url(#pbeff1c564f)" d="M 36 262.884706 
L 36 166.955294 
" style="fill:none;stroke:#cccccc;stroke-linecap:round;stroke-width:0.6;"/>
     </g>
    </g>
    <g id="xtick_9">
     <g id="line2d_21">
      <path clip-path="url(#pbeff1c564f)" d="M 73.2 262.884706 
L 73.2 166.955294 
" style="fill:none;stroke:#cccccc;stroke-linecap:round;stroke-width:0.6;"/>
     </g>
    </g>
    <g id="xtick_10">
     <g id="line2d_22">
      <path clip-path="url(#pbeff1c564f)" d="M 110.4 262.884706 
L 110.4 166.955294 
" style="fill:none;stroke:#cccccc;stroke-linecap:round;stroke-width:0.6;"/>
     </g>
    </g>
    <g id="xtick_11">
     <g id="line2d_23">
      <path clip-path="url(#pbeff1c564f)" d="M 147.6 262.884706 
L 147.6 166.955294 
" style="fill:none;stroke:#cccccc;stroke-linecap:round;stroke-width:0.6;"/>
     </g>
    </g>
    <g id="xtick_12">
     <g id="line2d_24">
      <path clip-path="url(#pbeff1c564f)" d="M 184.8 262.884706 
L 184.8 166.955294 
" style="fill:none;stroke:#cccccc;stroke-linecap:round;stroke-width:0.6;"/>
     </g>
    </g>
    <g id="xtick_13">
     <g id="line2d_25">
      <path clip-path="url(#pbeff1c564f)" d="M 222 262.884706 
L 222 166.955294 
" style="fill:none;stroke:#cccccc;stroke-linecap:round;stroke-width:0.6;"/>
     </g>
    </g>
    <g id="xtick_14">
     <g id="line2d_26">
      <path clip-path="url(#pbeff1c564f)" d="M 259.2 262.884706 
L 259.2 166.955294 
" style="fill:none;stroke:#cccccc;stroke-linecap:round;stroke-width:0.6;"/>
     </g>
    </g>
   </g>
   <g id="matplotlib.axis_4">
    <g id="ytick_5">
     <g id="line2d_27">
      <path clip-path="url(#pbeff1c564f)" d="M 36 258.524278 
L 259.2 258.524278 
" style="fill:none;stroke:#cccccc;stroke-linecap:round;stroke-width:0.6;"/>
     </g>
     <g id="text_8">
      <!-- 0.0 -->
      <g style="fill:#262626;" transform="translate(5.21 262.461075)scale(0.11 -0.11)">
       <use xlink:href="#ArialMT-48"/>
       <use x="55.615234" xlink:href="#ArialMT-46"/>
       <use x="83.398438" xlink:href="#ArialMT-48"/>
      </g>
     </g>
    </g>
    <g id="ytick_6">
     <g id="line2d_28">
      <path clip-path="url(#pbeff1c564f)" d="M 36 230.921384 
L 259.2 230.921384 
" style="fill:none;stroke:#cccccc;stroke-linecap:round;stroke-width:0.6;"/>
     </g>
     <g id="text_9">
      <!-- 0.2 -->
      <g style="fill:#262626;" transform="translate(5.21 234.858181)scale(0.11 -0.11)">
       <use xlink:href="#ArialMT-48"/>
       <use x="55.615234" xlink:href="#ArialMT-46"/>
       <use x="83.398438" xlink:href="#ArialMT-50"/>
      </g>
     </g>
    </g>
    <g id="ytick_7">
     <g id="line2d_29">
      <path clip-path="url(#pbeff1c564f)" d="M 36 203.318491 
L 259.2 203.318491 
" style="fill:none;stroke:#cccccc;stroke-linecap:round;stroke-width:0.6;"/>
     </g>
     <g id="text_10">
      <!-- 0.4 -->
      <g style="fill:#262626;" transform="translate(5.21 207.255287)scale(0.11 -0.11)">
       <defs>
        <path d="M 32.328125 0 
L 32.328125 17.140625 
L 1.265625 17.140625 
L 1.265625 25.203125 
L 33.9375 71.578125 
L 41.109375 71.578125 
L 41.109375 25.203125 
L 50.78125 25.203125 
L 50.78125 17.140625 
L 41.109375 17.140625 
L 41.109375 0 
z
M 32.328125 25.203125 
L 32.328125 57.46875 
L 9.90625 25.203125 
z
" id="ArialMT-52"/>
       </defs>
       <use xlink:href="#ArialMT-48"/>
       <use x="55.615234" xlink:href="#ArialMT-46"/>
       <use x="83.398438" xlink:href="#ArialMT-52"/>
      </g>
     </g>
    </g>
    <g id="ytick_8">
     <g id="line2d_30">
      <path clip-path="url(#pbeff1c564f)" d="M 36 175.715597 
L 259.2 175.715597 
" style="fill:none;stroke:#cccccc;stroke-linecap:round;stroke-width:0.6;"/>
     </g>
     <g id="text_11">
      <!-- 0.6 -->
      <g style="fill:#262626;" transform="translate(5.21 179.652394)scale(0.11 -0.11)">
       <defs>
        <path d="M 49.75 54.046875 
L 41.015625 53.375 
Q 39.84375 58.546875 37.703125 60.890625 
Q 34.125 64.65625 28.90625 64.65625 
Q 24.703125 64.65625 21.53125 62.3125 
Q 17.390625 59.28125 14.984375 53.46875 
Q 12.59375 47.65625 12.5 36.921875 
Q 15.671875 41.75 20.265625 44.09375 
Q 24.859375 46.4375 29.890625 46.4375 
Q 38.671875 46.4375 44.84375 39.96875 
Q 51.03125 33.5 51.03125 23.25 
Q 51.03125 16.5 48.125 10.71875 
Q 45.21875 4.9375 40.140625 1.859375 
Q 35.0625 -1.21875 28.609375 -1.21875 
Q 17.625 -1.21875 10.6875 6.859375 
Q 3.765625 14.9375 3.765625 33.5 
Q 3.765625 54.25 11.421875 63.671875 
Q 18.109375 71.875 29.4375 71.875 
Q 37.890625 71.875 43.28125 67.140625 
Q 48.6875 62.40625 49.75 54.046875 
z
M 13.875 23.1875 
Q 13.875 18.65625 15.796875 14.5 
Q 17.71875 10.359375 21.1875 8.171875 
Q 24.65625 6 28.46875 6 
Q 34.03125 6 38.03125 10.484375 
Q 42.046875 14.984375 42.046875 22.703125 
Q 42.046875 30.125 38.078125 34.390625 
Q 34.125 38.671875 28.125 38.671875 
Q 22.171875 38.671875 18.015625 34.390625 
Q 13.875 30.125 13.875 23.1875 
z
" id="ArialMT-54"/>
       </defs>
       <use xlink:href="#ArialMT-48"/>
       <use x="55.615234" xlink:href="#ArialMT-46"/>
       <use x="83.398438" xlink:href="#ArialMT-54"/>
      </g>
     </g>
    </g>
   </g>
   <g id="line2d_31">
    <path clip-path="url(#pbeff1c564f)" d="M 36 171.315722 
L 43.44 220.858164 
L 50.88 250.639962 
L 58.32 255.993699 
L 65.76 257.222962 
L 73.2 257.934756 
L 80.64 258.193127 
L 88.08 258.359066 
L 95.52 258.431847 
L 102.96 258.441308 
L 110.4 258.471876 
L 117.84 258.486432 
L 125.28 258.501716 
L 132.72 258.511905 
L 140.16 258.515544 
L 147.6 258.519911 
L 155.04 258.515544 
L 162.48 258.521367 
L 169.92 258.521367 
L 177.36 258.522095 
L 184.8 258.524278 
L 192.24 258.524278 
L 199.68 258.522095 
L 207.12 258.52355 
L 214.56 258.524278 
L 222 258.52355 
L 229.44 258.52355 
L 236.88 258.52355 
L 244.32 258.524278 
L 251.76 258.522822 
L 259.2 258.524278 
L 266.64 258.52355 
L 274.08 258.524278 
L 281.52 258.524278 
L 288.96 258.524278 
L 289 258.524278 
" style="fill:none;stroke:#d14a61;stroke-linecap:round;stroke-width:3;"/>
   </g>
   <g id="line2d_32">
    <path clip-path="url(#pbeff1c564f)" d="M 36 243.262846 
L 43.44 230.635355 
L 50.88 234.639762 
L 58.32 239.369794 
L 65.76 244.019767 
L 73.2 247.855322 
L 80.64 250.842251 
L 88.08 252.993656 
L 95.52 254.651605 
L 102.96 255.8292 
L 110.4 256.62324 
L 117.84 257.156724 
L 125.28 257.592682 
L 132.72 257.829948 
L 140.16 258.033007 
L 147.6 258.169107 
L 155.04 258.247711 
L 162.48 258.33432 
L 169.92 258.364888 
L 177.36 258.402006 
L 184.8 258.448586 
L 192.24 258.468965 
L 199.68 258.466781 
L 207.12 258.477698 
L 214.56 258.491527 
L 222 258.504627 
L 229.44 258.507538 
L 236.88 258.511905 
L 244.32 258.511178 
L 251.76 258.509722 
L 259.2 258.514089 
L 266.64 258.519183 
L 274.08 258.518456 
L 281.52 258.522095 
L 288.96 258.522095 
L 289 258.522091 
" style="fill:none;stroke:#d14a61;stroke-dasharray:12,4.5;stroke-dashoffset:0;stroke-width:3;"/>
   </g>
   <g id="line2d_33"/>
   <g id="line2d_34"/>
   <g id="patch_9">
    <path d="M 36 262.884706 
L 36 166.955294 
" style="fill:none;stroke:#cccccc;stroke-linecap:square;stroke-linejoin:miter;stroke-width:2.5;"/>
   </g>
   <g id="patch_10">
    <path d="M 259.2 262.884706 
L 259.2 166.955294 
" style="fill:none;stroke:#cccccc;stroke-linecap:square;stroke-linejoin:miter;stroke-width:2.5;"/>
   </g>
   <g id="patch_11">
    <path d="M 36 262.884706 
L 259.2 262.884706 
" style="fill:none;stroke:#cccccc;stroke-linecap:square;stroke-linejoin:miter;stroke-width:2.5;"/>
   </g>
   <g id="patch_12">
    <path d="M 36 166.955294 
L 259.2 166.955294 
" style="fill:none;stroke:#cccccc;stroke-linecap:square;stroke-linejoin:miter;stroke-width:2.5;"/>
   </g>
   <g id="text_12">
    <!-- IM2 -->
    <g style="fill:#262626;" transform="translate(137.59875 160.955294)scale(0.12 -0.12)">
     <use xlink:href="#ArialMT-73"/>
     <use x="27.783203" xlink:href="#ArialMT-77"/>
     <use x="111.083984" xlink:href="#ArialMT-50"/>
    </g>
   </g>
   <g id="legend_2">
    <g id="patch_13">
     <path d="M 172.275937 207.132794 
L 251.5 207.132794 
Q 253.7 207.132794 253.7 204.932794 
L 253.7 174.655294 
Q 253.7 172.455294 251.5 172.455294 
L 172.275937 172.455294 
Q 170.075938 172.455294 170.075938 174.655294 
L 170.075938 204.932794 
Q 170.075938 207.132794 172.275937 207.132794 
z
" style="fill:#ffffff;opacity:0.8;stroke:#cccccc;stroke-linejoin:miter;stroke-width:2;"/>
    </g>
    <g id="line2d_35">
     <path d="M 174.475938 180.878888 
L 196.475938 180.878888 
" style="fill:none;stroke:#d14a61;stroke-linecap:round;stroke-width:3;"/>
    </g>
    <g id="line2d_36"/>
    <g id="text_13">
     <!-- Region I -->
     <g style="fill:#262626;" transform="translate(205.275938 184.728888)scale(0.11 -0.11)">
      <use xlink:href="#ArialMT-82"/>
      <use x="72.216797" xlink:href="#ArialMT-101"/>
      <use x="127.832031" xlink:href="#ArialMT-103"/>
      <use x="183.447266" xlink:href="#ArialMT-105"/>
      <use x="205.664062" xlink:href="#ArialMT-111"/>
      <use x="261.279297" xlink:href="#ArialMT-110"/>
      <use x="316.894531" xlink:href="#ArialMT-32"/>
      <use x="344.677734" xlink:href="#ArialMT-73"/>
     </g>
    </g>
    <g id="line2d_37">
     <path d="M 174.475938 196.567638 
L 196.475938 196.567638 
" style="fill:none;stroke:#d14a61;stroke-dasharray:12,4.5;stroke-dashoffset:0;stroke-width:3;"/>
    </g>
    <g id="line2d_38"/>
    <g id="text_14">
     <!-- Region II -->
     <g style="fill:#262626;" transform="translate(205.275938 200.417638)scale(0.11 -0.11)">
      <use xlink:href="#ArialMT-82"/>
      <use x="72.216797" xlink:href="#ArialMT-101"/>
      <use x="127.832031" xlink:href="#ArialMT-103"/>
      <use x="183.447266" xlink:href="#ArialMT-105"/>
      <use x="205.664062" xlink:href="#ArialMT-111"/>
      <use x="261.279297" xlink:href="#ArialMT-110"/>
      <use x="316.894531" xlink:href="#ArialMT-32"/>
      <use x="344.677734" xlink:href="#ArialMT-73"/>
      <use x="372.460938" xlink:href="#ArialMT-73"/>
     </g>
    </g>
   </g>
  </g>
  <g id="axes_3">
   <g id="patch_14">
    <path d="M 36 378 
L 259.2 378 
L 259.2 282.070588 
L 36 282.070588 
z
" style="fill:#ffffff;"/>
   </g>
   <g id="matplotlib.axis_5">
    <g id="xtick_15">
     <g id="line2d_39">
      <path clip-path="url(#pe394c084fb)" d="M 36 378 
L 36 282.070588 
" style="fill:none;stroke:#cccccc;stroke-linecap:round;stroke-width:0.6;"/>
     </g>
     <g id="text_15">
      <!-- 0 -->
      <g style="fill:#262626;" transform="translate(32.941484 401.373594)scale(0.11 -0.11)">
       <use xlink:href="#ArialMT-48"/>
      </g>
     </g>
    </g>
    <g id="xtick_16">
     <g id="line2d_40">
      <path clip-path="url(#pe394c084fb)" d="M 73.2 378 
L 73.2 282.070588 
" style="fill:none;stroke:#cccccc;stroke-linecap:round;stroke-width:0.6;"/>
     </g>
     <g id="text_16">
      <!-- 5 -->
      <g style="fill:#262626;" transform="translate(70.141484 401.373594)scale(0.11 -0.11)">
       <defs>
        <path d="M 4.15625 18.75 
L 13.375 19.53125 
Q 14.40625 12.796875 18.140625 9.390625 
Q 21.875 6 27.15625 6 
Q 33.5 6 37.890625 10.78125 
Q 42.28125 15.578125 42.28125 23.484375 
Q 42.28125 31 38.0625 35.34375 
Q 33.84375 39.703125 27 39.703125 
Q 22.75 39.703125 19.328125 37.765625 
Q 15.921875 35.84375 13.96875 32.765625 
L 5.71875 33.84375 
L 12.640625 70.609375 
L 48.25 70.609375 
L 48.25 62.203125 
L 19.671875 62.203125 
L 15.828125 42.96875 
Q 22.265625 47.46875 29.34375 47.46875 
Q 38.71875 47.46875 45.15625 40.96875 
Q 51.609375 34.46875 51.609375 24.265625 
Q 51.609375 14.546875 45.953125 7.46875 
Q 39.0625 -1.21875 27.15625 -1.21875 
Q 17.390625 -1.21875 11.203125 4.25 
Q 5.03125 9.71875 4.15625 18.75 
z
" id="ArialMT-53"/>
       </defs>
       <use xlink:href="#ArialMT-53"/>
      </g>
     </g>
    </g>
    <g id="xtick_17">
     <g id="line2d_41">
      <path clip-path="url(#pe394c084fb)" d="M 110.4 378 
L 110.4 282.070588 
" style="fill:none;stroke:#cccccc;stroke-linecap:round;stroke-width:0.6;"/>
     </g>
     <g id="text_17">
      <!-- 10 -->
      <g style="fill:#262626;" transform="translate(104.282969 401.373594)scale(0.11 -0.11)">
       <use xlink:href="#ArialMT-49"/>
       <use x="55.615234" xlink:href="#ArialMT-48"/>
      </g>
     </g>
    </g>
    <g id="xtick_18">
     <g id="line2d_42">
      <path clip-path="url(#pe394c084fb)" d="M 147.6 378 
L 147.6 282.070588 
" style="fill:none;stroke:#cccccc;stroke-linecap:round;stroke-width:0.6;"/>
     </g>
     <g id="text_18">
      <!-- 15 -->
      <g style="fill:#262626;" transform="translate(141.482969 401.373594)scale(0.11 -0.11)">
       <use xlink:href="#ArialMT-49"/>
       <use x="55.615234" xlink:href="#ArialMT-53"/>
      </g>
     </g>
    </g>
    <g id="xtick_19">
     <g id="line2d_43">
      <path clip-path="url(#pe394c084fb)" d="M 184.8 378 
L 184.8 282.070588 
" style="fill:none;stroke:#cccccc;stroke-linecap:round;stroke-width:0.6;"/>
     </g>
     <g id="text_19">
      <!-- 20 -->
      <g style="fill:#262626;" transform="translate(178.682969 401.373594)scale(0.11 -0.11)">
       <use xlink:href="#ArialMT-50"/>
       <use x="55.615234" xlink:href="#ArialMT-48"/>
      </g>
     </g>
    </g>
    <g id="xtick_20">
     <g id="line2d_44">
      <path clip-path="url(#pe394c084fb)" d="M 222 378 
L 222 282.070588 
" style="fill:none;stroke:#cccccc;stroke-linecap:round;stroke-width:0.6;"/>
     </g>
     <g id="text_20">
      <!-- 25 -->
      <g style="fill:#262626;" transform="translate(215.882969 401.373594)scale(0.11 -0.11)">
       <use xlink:href="#ArialMT-50"/>
       <use x="55.615234" xlink:href="#ArialMT-53"/>
      </g>
     </g>
    </g>
    <g id="xtick_21">
     <g id="line2d_45">
      <path clip-path="url(#pe394c084fb)" d="M 259.2 378 
L 259.2 282.070588 
" style="fill:none;stroke:#cccccc;stroke-linecap:round;stroke-width:0.6;"/>
     </g>
     <g id="text_21">
      <!-- 30 -->
      <g style="fill:#262626;" transform="translate(253.082969 401.373594)scale(0.11 -0.11)">
       <use xlink:href="#ArialMT-51"/>
       <use x="55.615234" xlink:href="#ArialMT-48"/>
      </g>
     </g>
    </g>
   </g>
   <g id="matplotlib.axis_6">
    <g id="ytick_9">
     <g id="line2d_46">
      <path clip-path="url(#pe394c084fb)" d="M 36 373.639572 
L 259.2 373.639572 
" style="fill:none;stroke:#cccccc;stroke-linecap:round;stroke-width:0.6;"/>
     </g>
     <g id="text_22">
      <!-- 0.0 -->
      <g style="fill:#262626;" transform="translate(5.21 377.576369)scale(0.11 -0.11)">
       <use xlink:href="#ArialMT-48"/>
       <use x="55.615234" xlink:href="#ArialMT-46"/>
       <use x="83.398438" xlink:href="#ArialMT-48"/>
      </g>
     </g>
    </g>
    <g id="ytick_10">
     <g id="line2d_47">
      <path clip-path="url(#pe394c084fb)" d="M 36 336.747042 
L 259.2 336.747042 
" style="fill:none;stroke:#cccccc;stroke-linecap:round;stroke-width:0.6;"/>
     </g>
     <g id="text_23">
      <!-- 0.2 -->
      <g style="fill:#262626;" transform="translate(5.21 340.683839)scale(0.11 -0.11)">
       <use xlink:href="#ArialMT-48"/>
       <use x="55.615234" xlink:href="#ArialMT-46"/>
       <use x="83.398438" xlink:href="#ArialMT-50"/>
      </g>
     </g>
    </g>
    <g id="ytick_11">
     <g id="line2d_48">
      <path clip-path="url(#pe394c084fb)" d="M 36 299.854511 
L 259.2 299.854511 
" style="fill:none;stroke:#cccccc;stroke-linecap:round;stroke-width:0.6;"/>
     </g>
     <g id="text_24">
      <!-- 0.4 -->
      <g style="fill:#262626;" transform="translate(5.21 303.791308)scale(0.11 -0.11)">
       <use xlink:href="#ArialMT-48"/>
       <use x="55.615234" xlink:href="#ArialMT-46"/>
       <use x="83.398438" xlink:href="#ArialMT-52"/>
      </g>
     </g>
    </g>
   </g>
   <g id="line2d_49">
    <path clip-path="url(#pe394c084fb)" d="M 36 286.431016 
L 43.44 306.680654 
L 50.88 355.196322 
L 58.32 368.339083 
L 65.76 371.529688 
L 73.2 372.354576 
L 80.64 372.637645 
L 88.08 372.890558 
L 95.52 373.093862 
L 102.96 373.292302 
L 110.4 373.426541 
L 117.84 373.534516 
L 125.28 373.555916 
L 132.72 373.587044 
L 140.16 373.614281 
L 147.6 373.627899 
L 155.04 373.632763 
L 162.48 373.633736 
L 169.92 373.636654 
L 177.36 373.638599 
L 184.8 373.634708 
L 192.24 373.639572 
L 199.68 373.639572 
L 207.12 373.639572 
L 214.56 373.639572 
L 222 373.639572 
L 229.44 373.639572 
L 236.88 373.639572 
L 244.32 373.639572 
L 251.76 373.639572 
L 259.2 373.639572 
L 266.64 373.639572 
L 274.08 373.639572 
L 281.52 373.639572 
L 288.96 373.639572 
L 289 373.639572 
" style="fill:none;stroke:#6c2b6d;stroke-linecap:round;stroke-width:3;"/>
   </g>
   <g id="line2d_50">
    <path clip-path="url(#pe394c084fb)" d="M 36 357.839188 
L 43.44 343.465829 
L 50.88 345.463858 
L 58.32 348.94144 
L 65.76 353.140804 
L 73.2 357.059042 
L 80.64 360.754521 
L 88.08 363.843976 
L 95.52 366.343944 
L 102.96 368.37602 
L 110.4 369.804017 
L 117.84 370.930462 
L 125.28 371.717417 
L 132.72 372.338032 
L 140.16 372.663904 
L 147.6 372.910009 
L 155.04 373.116232 
L 162.48 373.312728 
L 169.92 373.384712 
L 177.36 373.44794 
L 184.8 373.487823 
L 192.24 373.541324 
L 199.68 373.552997 
L 207.12 373.584125 
L 214.56 373.607471 
L 222 373.62109 
L 229.44 373.619144 
L 236.88 373.625954 
L 244.32 373.624981 
L 251.76 373.628872 
L 259.2 373.636654 
L 266.64 373.638599 
L 274.08 373.63179 
L 281.52 373.636654 
L 288.96 373.636654 
L 289 373.636664 
" style="fill:none;stroke:#6c2b6d;stroke-dasharray:12,4.5;stroke-dashoffset:0;stroke-width:3;"/>
   </g>
   <g id="line2d_51"/>
   <g id="line2d_52"/>
   <g id="patch_15">
    <path d="M 36 378 
L 36 282.070588 
" style="fill:none;stroke:#cccccc;stroke-linecap:square;stroke-linejoin:miter;stroke-width:2.5;"/>
   </g>
   <g id="patch_16">
    <path d="M 259.2 378 
L 259.2 282.070588 
" style="fill:none;stroke:#cccccc;stroke-linecap:square;stroke-linejoin:miter;stroke-width:2.5;"/>
   </g>
   <g id="patch_17">
    <path d="M 36 378 
L 259.2 378 
" style="fill:none;stroke:#cccccc;stroke-linecap:square;stroke-linejoin:miter;stroke-width:2.5;"/>
   </g>
   <g id="patch_18">
    <path d="M 36 282.070588 
L 259.2 282.070588 
" style="fill:none;stroke:#cccccc;stroke-linecap:square;stroke-linejoin:miter;stroke-width:2.5;"/>
   </g>
   <g id="text_25">
    <!-- Neighbor Difference Histogram -->
    <g style="fill:#262626;" transform="translate(54.887031 21.6)scale(0.13 -0.13)">
     <defs>
      <path d="M 7.625 0 
L 7.625 71.578125 
L 17.328125 71.578125 
L 54.9375 15.375 
L 54.9375 71.578125 
L 64.015625 71.578125 
L 64.015625 0 
L 54.296875 0 
L 16.703125 56.25 
L 16.703125 0 
z
" id="ArialMT-78"/>
      <path d="M 6.59375 0 
L 6.59375 71.578125 
L 15.375 71.578125 
L 15.375 45.90625 
Q 21.53125 53.03125 30.90625 53.03125 
Q 36.671875 53.03125 40.921875 50.75 
Q 45.171875 48.484375 47 44.484375 
Q 48.828125 40.484375 48.828125 32.859375 
L 48.828125 0 
L 40.046875 0 
L 40.046875 32.859375 
Q 40.046875 39.453125 37.1875 42.453125 
Q 34.328125 45.453125 29.109375 45.453125 
Q 25.203125 45.453125 21.75 43.421875 
Q 18.3125 41.40625 16.84375 37.9375 
Q 15.375 34.46875 15.375 28.375 
L 15.375 0 
z
" id="ArialMT-104"/>
      <path d="M 14.703125 0 
L 6.546875 0 
L 6.546875 71.578125 
L 15.328125 71.578125 
L 15.328125 46.046875 
Q 20.90625 53.03125 29.546875 53.03125 
Q 34.328125 53.03125 38.59375 51.09375 
Q 42.875 49.171875 45.625 45.671875 
Q 48.390625 42.1875 49.953125 37.25 
Q 51.515625 32.328125 51.515625 26.703125 
Q 51.515625 13.375 44.921875 6.09375 
Q 38.328125 -1.171875 29.109375 -1.171875 
Q 19.921875 -1.171875 14.703125 6.5 
z
M 14.59375 26.3125 
Q 14.59375 17 17.140625 12.84375 
Q 21.296875 6.0625 28.375 6.0625 
Q 34.125 6.0625 38.328125 11.0625 
Q 42.53125 16.0625 42.53125 25.984375 
Q 42.53125 36.140625 38.5 40.96875 
Q 34.46875 45.796875 28.765625 45.796875 
Q 23 45.796875 18.796875 40.796875 
Q 14.59375 35.796875 14.59375 26.3125 
z
" id="ArialMT-98"/>
      <path d="M 6.5 0 
L 6.5 51.859375 
L 14.40625 51.859375 
L 14.40625 44 
Q 17.4375 49.515625 20 51.265625 
Q 22.5625 53.03125 25.640625 53.03125 
Q 30.078125 53.03125 34.671875 50.203125 
L 31.640625 42.046875 
Q 28.421875 43.953125 25.203125 43.953125 
Q 22.3125 43.953125 20.015625 42.21875 
Q 17.71875 40.484375 16.75 37.40625 
Q 15.28125 32.71875 15.28125 27.15625 
L 15.28125 0 
z
" id="ArialMT-114"/>
      <path d="M 7.71875 0 
L 7.71875 71.578125 
L 32.375 71.578125 
Q 40.71875 71.578125 45.125 70.5625 
Q 51.265625 69.140625 55.609375 65.4375 
Q 61.28125 60.640625 64.078125 53.1875 
Q 66.890625 45.75 66.890625 36.1875 
Q 66.890625 28.03125 64.984375 21.734375 
Q 63.09375 15.4375 60.109375 11.296875 
Q 57.125 7.171875 53.578125 4.796875 
Q 50.046875 2.4375 45.046875 1.21875 
Q 40.046875 0 33.546875 0 
z
M 17.1875 8.453125 
L 32.46875 8.453125 
Q 39.546875 8.453125 43.578125 9.765625 
Q 47.609375 11.078125 50 13.484375 
Q 53.375 16.84375 55.25 22.53125 
Q 57.125 28.21875 57.125 36.328125 
Q 57.125 47.5625 53.4375 53.59375 
Q 49.75 59.625 44.484375 61.671875 
Q 40.671875 63.140625 32.234375 63.140625 
L 17.1875 63.140625 
z
" id="ArialMT-68"/>
      <path d="M 8.6875 0 
L 8.6875 45.015625 
L 0.921875 45.015625 
L 0.921875 51.859375 
L 8.6875 51.859375 
L 8.6875 57.375 
Q 8.6875 62.59375 9.625 65.140625 
Q 10.890625 68.5625 14.078125 70.671875 
Q 17.28125 72.796875 23.046875 72.796875 
Q 26.765625 72.796875 31.25 71.921875 
L 29.9375 64.265625 
Q 27.203125 64.75 24.75 64.75 
Q 20.75 64.75 19.09375 63.03125 
Q 17.4375 61.328125 17.4375 56.640625 
L 17.4375 51.859375 
L 27.546875 51.859375 
L 27.546875 45.015625 
L 17.4375 45.015625 
L 17.4375 0 
z
" id="ArialMT-102"/>
      <path d="M 40.4375 19 
L 49.078125 17.875 
Q 47.65625 8.9375 41.8125 3.875 
Q 35.984375 -1.171875 27.484375 -1.171875 
Q 16.84375 -1.171875 10.375 5.78125 
Q 3.90625 12.75 3.90625 25.734375 
Q 3.90625 34.125 6.6875 40.421875 
Q 9.46875 46.734375 15.15625 49.875 
Q 20.84375 53.03125 27.546875 53.03125 
Q 35.984375 53.03125 41.359375 48.75 
Q 46.734375 44.484375 48.25 36.625 
L 39.703125 35.296875 
Q 38.484375 40.53125 35.375 43.15625 
Q 32.28125 45.796875 27.875 45.796875 
Q 21.234375 45.796875 17.078125 41.03125 
Q 12.9375 36.28125 12.9375 25.984375 
Q 12.9375 15.53125 16.9375 10.796875 
Q 20.953125 6.0625 27.390625 6.0625 
Q 32.5625 6.0625 36.03125 9.234375 
Q 39.5 12.40625 40.4375 19 
z
" id="ArialMT-99"/>
      <path d="M 8.015625 0 
L 8.015625 71.578125 
L 17.484375 71.578125 
L 17.484375 42.1875 
L 54.6875 42.1875 
L 54.6875 71.578125 
L 64.15625 71.578125 
L 64.15625 0 
L 54.6875 0 
L 54.6875 33.734375 
L 17.484375 33.734375 
L 17.484375 0 
z
" id="ArialMT-72"/>
      <path d="M 3.078125 15.484375 
L 11.765625 16.84375 
Q 12.5 11.625 15.84375 8.84375 
Q 19.1875 6.0625 25.203125 6.0625 
Q 31.25 6.0625 34.171875 8.515625 
Q 37.109375 10.984375 37.109375 14.3125 
Q 37.109375 17.28125 34.515625 19 
Q 32.71875 20.171875 25.53125 21.96875 
Q 15.875 24.421875 12.140625 26.203125 
Q 8.40625 27.984375 6.46875 31.125 
Q 4.546875 34.28125 4.546875 38.09375 
Q 4.546875 41.546875 6.125 44.5 
Q 7.71875 47.46875 10.453125 49.421875 
Q 12.5 50.921875 16.03125 51.96875 
Q 19.578125 53.03125 23.640625 53.03125 
Q 29.734375 53.03125 34.34375 51.265625 
Q 38.96875 49.515625 41.15625 46.5 
Q 43.359375 43.5 44.1875 38.484375 
L 35.59375 37.3125 
Q 35.015625 41.3125 32.203125 43.546875 
Q 29.390625 45.796875 24.265625 45.796875 
Q 18.21875 45.796875 15.625 43.796875 
Q 13.03125 41.796875 13.03125 39.109375 
Q 13.03125 37.40625 14.109375 36.03125 
Q 15.1875 34.625 17.484375 33.6875 
Q 18.796875 33.203125 25.25 31.453125 
Q 34.578125 28.953125 38.25 27.359375 
Q 41.9375 25.78125 44.03125 22.75 
Q 46.140625 19.734375 46.140625 15.234375 
Q 46.140625 10.84375 43.578125 6.953125 
Q 41.015625 3.078125 36.171875 0.953125 
Q 31.34375 -1.171875 25.25 -1.171875 
Q 15.140625 -1.171875 9.84375 3.03125 
Q 4.546875 7.234375 3.078125 15.484375 
z
" id="ArialMT-115"/>
      <path d="M 25.78125 7.859375 
L 27.046875 0.09375 
Q 23.34375 -0.6875 20.40625 -0.6875 
Q 15.625 -0.6875 12.984375 0.828125 
Q 10.359375 2.34375 9.28125 4.8125 
Q 8.203125 7.28125 8.203125 15.1875 
L 8.203125 45.015625 
L 1.765625 45.015625 
L 1.765625 51.859375 
L 8.203125 51.859375 
L 8.203125 64.703125 
L 16.9375 69.96875 
L 16.9375 51.859375 
L 25.78125 51.859375 
L 25.78125 45.015625 
L 16.9375 45.015625 
L 16.9375 14.703125 
Q 16.9375 10.9375 17.40625 9.859375 
Q 17.875 8.796875 18.921875 8.15625 
Q 19.96875 7.515625 21.921875 7.515625 
Q 23.390625 7.515625 25.78125 7.859375 
z
" id="ArialMT-116"/>
      <path d="M 40.4375 6.390625 
Q 35.546875 2.25 31.03125 0.53125 
Q 26.515625 -1.171875 21.34375 -1.171875 
Q 12.796875 -1.171875 8.203125 3 
Q 3.609375 7.171875 3.609375 13.671875 
Q 3.609375 17.484375 5.34375 20.625 
Q 7.078125 23.78125 9.890625 25.6875 
Q 12.703125 27.59375 16.21875 28.5625 
Q 18.796875 29.25 24.03125 29.890625 
Q 34.671875 31.15625 39.703125 32.90625 
Q 39.75 34.71875 39.75 35.203125 
Q 39.75 40.578125 37.25 42.78125 
Q 33.890625 45.75 27.25 45.75 
Q 21.046875 45.75 18.09375 43.578125 
Q 15.140625 41.40625 13.71875 35.890625 
L 5.125 37.0625 
Q 6.296875 42.578125 8.984375 45.96875 
Q 11.671875 49.359375 16.75 51.1875 
Q 21.828125 53.03125 28.515625 53.03125 
Q 35.15625 53.03125 39.296875 51.46875 
Q 43.453125 49.90625 45.40625 47.53125 
Q 47.359375 45.171875 48.140625 41.546875 
Q 48.578125 39.3125 48.578125 33.453125 
L 48.578125 21.734375 
Q 48.578125 9.46875 49.140625 6.21875 
Q 49.703125 2.984375 51.375 0 
L 42.1875 0 
Q 40.828125 2.734375 40.4375 6.390625 
z
M 39.703125 26.03125 
Q 34.90625 24.078125 25.34375 22.703125 
Q 19.921875 21.921875 17.671875 20.9375 
Q 15.4375 19.96875 14.203125 18.09375 
Q 12.984375 16.21875 12.984375 13.921875 
Q 12.984375 10.40625 15.640625 8.0625 
Q 18.3125 5.71875 23.4375 5.71875 
Q 28.515625 5.71875 32.46875 7.9375 
Q 36.421875 10.15625 38.28125 14.015625 
Q 39.703125 17 39.703125 22.796875 
z
" id="ArialMT-97"/>
      <path d="M 6.59375 0 
L 6.59375 51.859375 
L 14.453125 51.859375 
L 14.453125 44.578125 
Q 16.890625 48.390625 20.9375 50.703125 
Q 25 53.03125 30.171875 53.03125 
Q 35.9375 53.03125 39.625 50.640625 
Q 43.3125 48.25 44.828125 43.953125 
Q 50.984375 53.03125 60.84375 53.03125 
Q 68.5625 53.03125 72.703125 48.75 
Q 76.859375 44.484375 76.859375 35.59375 
L 76.859375 0 
L 68.109375 0 
L 68.109375 32.671875 
Q 68.109375 37.9375 67.25 40.25 
Q 66.40625 42.578125 64.15625 43.984375 
Q 61.921875 45.40625 58.890625 45.40625 
Q 53.421875 45.40625 49.796875 41.765625 
Q 46.1875 38.140625 46.1875 30.125 
L 46.1875 0 
L 37.40625 0 
L 37.40625 33.6875 
Q 37.40625 39.546875 35.25 42.46875 
Q 33.109375 45.40625 28.21875 45.40625 
Q 24.515625 45.40625 21.359375 43.453125 
Q 18.21875 41.5 16.796875 37.734375 
Q 15.375 33.984375 15.375 26.90625 
L 15.375 0 
z
" id="ArialMT-109"/>
     </defs>
     <use xlink:href="#ArialMT-78"/>
     <use x="72.216797" xlink:href="#ArialMT-101"/>
     <use x="127.832031" xlink:href="#ArialMT-105"/>
     <use x="150.048828" xlink:href="#ArialMT-103"/>
     <use x="205.664062" xlink:href="#ArialMT-104"/>
     <use x="261.279297" xlink:href="#ArialMT-98"/>
     <use x="316.894531" xlink:href="#ArialMT-111"/>
     <use x="372.509766" xlink:href="#ArialMT-114"/>
     <use x="405.810547" xlink:href="#ArialMT-32"/>
     <use x="433.59375" xlink:href="#ArialMT-68"/>
     <use x="505.810547" xlink:href="#ArialMT-105"/>
     <use x="528.027344" xlink:href="#ArialMT-102"/>
     <use x="554.060547" xlink:href="#ArialMT-102"/>
     <use x="581.84375" xlink:href="#ArialMT-101"/>
     <use x="637.458984" xlink:href="#ArialMT-114"/>
     <use x="670.759766" xlink:href="#ArialMT-101"/>
     <use x="726.375" xlink:href="#ArialMT-110"/>
     <use x="781.990234" xlink:href="#ArialMT-99"/>
     <use x="831.990234" xlink:href="#ArialMT-101"/>
     <use x="887.605469" xlink:href="#ArialMT-32"/>
     <use x="915.388672" xlink:href="#ArialMT-72"/>
     <use x="987.605469" xlink:href="#ArialMT-105"/>
     <use x="1009.822266" xlink:href="#ArialMT-115"/>
     <use x="1059.822266" xlink:href="#ArialMT-116"/>
     <use x="1087.605469" xlink:href="#ArialMT-111"/>
     <use x="1143.220703" xlink:href="#ArialMT-103"/>
     <use x="1198.835938" xlink:href="#ArialMT-114"/>
     <use x="1232.136719" xlink:href="#ArialMT-97"/>
     <use x="1287.751953" xlink:href="#ArialMT-109"/>
    </g>
   </g>
   <g id="text_26">
    <!-- IM3 -->
    <g style="fill:#262626;" transform="translate(137.59875 276.070588)scale(0.12 -0.12)">
     <use xlink:href="#ArialMT-73"/>
     <use x="27.783203" xlink:href="#ArialMT-77"/>
     <use x="111.083984" xlink:href="#ArialMT-51"/>
    </g>
   </g>
   <g id="legend_3">
    <g id="patch_19">
     <path d="M 172.275937 322.248088 
L 251.5 322.248088 
Q 253.7 322.248088 253.7 320.048088 
L 253.7 289.770588 
Q 253.7 287.570588 251.5 287.570588 
L 172.275937 287.570588 
Q 170.075938 287.570588 170.075938 289.770588 
L 170.075938 320.048088 
Q 170.075938 322.248088 172.275937 322.248088 
z
" style="fill:#ffffff;opacity:0.8;stroke:#cccccc;stroke-linejoin:miter;stroke-width:2;"/>
    </g>
    <g id="line2d_53">
     <path d="M 174.475938 295.994182 
L 196.475938 295.994182 
" style="fill:none;stroke:#6c2b6d;stroke-linecap:round;stroke-width:3;"/>
    </g>
    <g id="line2d_54"/>
    <g id="text_27">
     <!-- Region I -->
     <g style="fill:#262626;" transform="translate(205.275938 299.844182)scale(0.11 -0.11)">
      <use xlink:href="#ArialMT-82"/>
      <use x="72.216797" xlink:href="#ArialMT-101"/>
      <use x="127.832031" xlink:href="#ArialMT-103"/>
      <use x="183.447266" xlink:href="#ArialMT-105"/>
      <use x="205.664062" xlink:href="#ArialMT-111"/>
      <use x="261.279297" xlink:href="#ArialMT-110"/>
      <use x="316.894531" xlink:href="#ArialMT-32"/>
      <use x="344.677734" xlink:href="#ArialMT-73"/>
     </g>
    </g>
    <g id="line2d_55">
     <path d="M 174.475938 311.682932 
L 196.475938 311.682932 
" style="fill:none;stroke:#6c2b6d;stroke-dasharray:12,4.5;stroke-dashoffset:0;stroke-width:3;"/>
    </g>
    <g id="line2d_56"/>
    <g id="text_28">
     <!-- Region II -->
     <g style="fill:#262626;" transform="translate(205.275938 315.532932)scale(0.11 -0.11)">
      <use xlink:href="#ArialMT-82"/>
      <use x="72.216797" xlink:href="#ArialMT-101"/>
      <use x="127.832031" xlink:href="#ArialMT-103"/>
      <use x="183.447266" xlink:href="#ArialMT-105"/>
      <use x="205.664062" xlink:href="#ArialMT-111"/>
      <use x="261.279297" xlink:href="#ArialMT-110"/>
      <use x="316.894531" xlink:href="#ArialMT-32"/>
      <use x="344.677734" xlink:href="#ArialMT-73"/>
      <use x="372.460938" xlink:href="#ArialMT-73"/>
     </g>
    </g>
   </g>
  </g>
 </g>
 <defs>
  <clipPath id="p69b6f190b2">
   <rect height="95.929412" width="223.2" x="36" y="51.84"/>
  </clipPath>
  <clipPath id="pbeff1c564f">
   <rect height="95.929412" width="223.2" x="36" y="166.955294"/>
  </clipPath>
  <clipPath id="pe394c084fb">
   <rect height="95.929412" width="223.2" x="36" y="282.070588"/>
  </clipPath>
 </defs>
</svg>
